<?xml version="1.0" encoding="UTF-8"?>
<svg version="1.1" xmlns="http://www.w3.org/2000/svg" width="598" height="200">
<path d="M0 0 C21 0 21 0 25.33203125 4.22265625 C26.27008244 6.1251779 27.15738299 8.0533297 28 10 C29.2280946 12.01466074 30.4832934 14.0129894 31.76171875 15.99609375 C33.07311522 18.14151851 34.38161722 20.2887147 35.6875 22.4375 C37.09580606 24.74332135 38.50669898 27.04755416 39.91796875 29.3515625 C40.26580414 29.91992325 40.61363953 30.488284 40.97201538 31.0738678 C44.53789857 36.89312184 48.17778962 42.66427751 51.8425293 48.42163086 C54.65883168 52.85203407 57.42950251 57.30906524 60.17773438 61.78198242 C60.54646667 62.38166588 60.91519897 62.98134933 61.29510498 63.59920502 C62.19696067 65.06599896 63.0985115 66.53298035 64 68 C64.01030746 67.16283951 64.02061493 66.32567902 64.03123474 65.46315002 C64.12903782 57.59025264 64.23152725 49.71743342 64.33933926 41.84466648 C64.39460529 37.79678183 64.44803102 33.74889 64.49731445 29.70092773 C64.54490393 25.79757638 64.5972445 21.89431551 64.65294075 17.9910717 C64.67338894 16.49868955 64.69209787 15.00628257 64.70907402 13.51385689 C64.7330638 11.43045151 64.76312519 9.3472186 64.79467773 7.26391602 C64.81022202 6.07588882 64.8257663 4.88786163 64.84178162 3.66383362 C65 1 65 1 66 0 C67.63472882 -0.08700342 69.27314055 -0.10701063 70.91015625 -0.09765625 C71.89951172 -0.09443359 72.88886719 -0.09121094 73.90820312 -0.08789062 C74.94912109 -0.07951172 75.99003906 -0.07113281 77.0625 -0.0625 C78.62967773 -0.05573242 78.62967773 -0.05573242 80.22851562 -0.04882812 C82.8190666 -0.03699913 85.40950559 -0.02051689 88 0 C88.06951451 13.32587428 88.1228188 26.6517054 88.15543652 39.97772408 C88.17109147 46.16555308 88.19232698 52.35325802 88.22631836 58.54101562 C88.25891736 64.5126861 88.27685429 70.48423725 88.28463173 76.45598984 C88.29017422 78.73415887 88.3009973 81.01232138 88.31719017 83.29043961 C88.3389712 86.4816931 88.34196658 89.67245365 88.34057617 92.86376953 C88.351362 93.80532394 88.36214783 94.74687836 88.3732605 95.71696472 C88.34877843 100.91084038 87.89398268 104.50062192 85 109 C82.14728426 111.79944927 80.08740881 112.43132802 76.125 112.4375 C70.61357989 112.24354973 67.54345991 110.6219935 63.67163086 106.63061523 C59.02210483 101.3883988 55.45444615 95.59320802 51.8125 89.625 C50.48286086 87.47068103 49.15212542 85.31703831 47.8203125 83.1640625 C47.17094727 82.11250977 46.52158203 81.06095703 45.85253906 79.97753906 C42.97573855 75.35373054 40.01498648 70.78646453 37.02856445 66.23291016 C32.23244385 58.89249998 27.65160652 51.44257043 23 44 C22.67 66.11 22.34 88.22 22 111 C14.74 111 7.48 111 0 111 C0 74.37 0 37.74 0 0 Z " fill="#FDFDFD" transform="translate(316,44)"/>
<path d="M0 0 C0.89976563 -0.020625 1.79953125 -0.04125 2.7265625 -0.0625 C14.05265716 -0.1275925 23.32847003 3.1608695 31.6640625 10.9140625 C37.89461671 17.63569488 38.875 23.09606474 38.875 32.25 C28.975 32.745 28.975 32.745 18.875 33.25 C17.555 30.61 16.235 27.97 14.875 25.25 C10.48302007 20.85802007 7.14004377 20.40100292 1.125 20 C-4.6405303 20.08735652 -9.85092091 21.71499661 -14.625 24.9375 C-16.78300715 28.26442769 -17.31357453 31.3056495 -17.125 35.25 C-15.78994331 38.78397359 -14.6723765 39.93371292 -11.40356445 41.82250977 C-8.05461914 43.2806439 -5.34584275 43.85587694 -1.73046875 44.27734375 C-0.52712891 44.43009766 0.67621094 44.58285156 1.91601562 44.74023438 C4.41832673 45.03698696 6.92093056 45.33128203 9.42382812 45.62304688 C16.5595176 46.53358066 22.52809585 47.82514232 28.875 51.25 C29.926875 51.78625 30.97875 52.3225 32.0625 52.875 C37.46902256 57.44050794 41.40939494 64.08467375 42.05200195 71.21362305 C42.59818585 89.46835106 42.59818585 89.46835106 37.875 96.25 C37.41222656 96.94222656 36.94945312 97.63445312 36.47265625 98.34765625 C30.30901918 106.4101155 20.67827032 110.48616046 10.875 112.25 C-3.87239256 113.77905652 -18.10714371 111.43764057 -30.125 102.25 C-36.13988111 96.66718974 -40.09033817 90.52729465 -41.125 82.25 C-41.125 79.94 -41.125 77.63 -41.125 75.25 C-31.225 74.755 -31.225 74.755 -21.125 74.25 C-20.609375 75.796875 -20.09375 77.34375 -19.5625 78.9375 C-17.46054789 84.17017656 -15.17537368 86.79451046 -10.125 89.25 C-3.04989009 92.10725592 5.11251601 92.44757748 12.375 90 C15.8625359 88.25623205 16.94291474 87.48739286 18.875 84.25 C19.53923135 80.84581431 19.46171847 77.66514431 18.875 74.25 C15.79841737 69.90658923 12.89586807 68.62084744 7.875 67.25 C4.1575648 66.68545691 0.42417663 66.28948598 -3.3125 65.875 C-16.09197156 64.29678218 -26.35903821 62.45569356 -35.125 52.25 C-40.35287579 44.6036886 -41.10817338 34.39069602 -39.5 25.4375 C-37.06976701 16.73313608 -31.40029472 10.42532795 -24.125 5.25 C-16.06980777 1.15153709 -8.91819963 0.04982234 0 0 Z " fill="#FCFCFC" transform="translate(94.125,43.75)"/>
<path d="M0 0 C9.50074325 -0.02312484 19.00147688 -0.0409158 28.50224209 -0.05181217 C32.91337004 -0.05704069 37.3244788 -0.06413777 41.7355957 -0.07543945 C45.98901115 -0.08626944 50.24240809 -0.09227707 54.49583626 -0.09487724 C56.12221633 -0.09673129 57.74859534 -0.10035152 59.37496758 -0.10573006 C61.64510193 -0.11294198 63.91515885 -0.11399088 66.18530273 -0.11352539 C68.12722755 -0.11685631 68.12722755 -0.11685631 70.10838318 -0.12025452 C73 0 73 0 74 1 C74 7.6 74 14.2 74 21 C57.17 21 40.34 21 23 21 C23 28.92 23 36.84 23 45 C34.55 45 46.1 45 58 45 C58 56 58 56 57 65 C45.78 65 34.56 65 23 65 C23.144375 68.2175 23.28875 71.435 23.4375 74.75 C23.48060303 75.75772461 23.52370605 76.76544922 23.56811523 77.80371094 C23.6252771 79.00688965 23.6252771 79.00688965 23.68359375 80.234375 C23.72025146 81.05131836 23.75690918 81.86826172 23.79467773 82.70996094 C23.99134275 84.9034423 24.40300594 86.88396413 25 89 C29.99203661 90.28340557 34.99284627 90.22504217 40.11328125 90.31640625 C41.56760811 90.3475779 41.56760811 90.3475779 43.05131531 90.37937927 C46.13830707 90.44458941 49.22538152 90.5036268 52.3125 90.5625 C54.40951364 90.60571237 56.50651903 90.64932752 58.60351562 90.69335938 C63.7355937 90.80099694 68.8677375 90.90028262 74 91 C74 97.6 74 104.2 74 111 C66.97489452 111.09964145 59.95020976 111.17183203 52.92456055 111.21972656 C50.53972192 111.2397144 48.1549315 111.26691395 45.77026367 111.30175781 C16.46941662 111.71885172 16.46941662 111.71885172 7.79760742 105.39355469 C0.33512206 98.04383577 -0.23889465 87.57659679 -0.34057617 77.65136719 C-0.35147131 74.03282158 -0.32402215 70.4152673 -0.29296875 66.796875 C-0.28736265 64.86346773 -0.28309735 62.93005615 -0.28010559 60.99664307 C-0.26873658 55.94634919 -0.23933915 50.89632057 -0.20599365 45.84613037 C-0.17512008 40.67740465 -0.16156356 35.50863541 -0.14648438 30.33984375 C-0.11446072 20.22644695 -0.06336224 10.11324567 0 0 Z " fill="#FCFCFC" transform="translate(188,44)"/>
<path d="M0 0 C4.85672499 4.7494787 6.73017951 9.83272875 8.875 16.1875 C9.24520264 17.248479 9.61540527 18.30945801 9.99682617 19.40258789 C10.84997634 21.85193259 11.69801004 24.30254673 12.53955078 26.75585938 C14.17394739 31.51533965 15.83472899 36.26550362 17.49609375 41.015625 C19.41620228 46.50740547 21.33509879 51.99958433 23.24584961 57.49462891 C26.35119574 66.42418264 29.46868549 75.34889451 32.6328125 84.2578125 C33.05747047 85.45462395 33.05747047 85.45462395 33.4907074 86.6756134 C34.82154872 90.42509328 36.1557973 94.17330552 37.49536133 97.91967773 C37.96447201 99.23937915 38.43347299 100.55911957 38.90234375 101.87890625 C39.30960693 103.0191626 39.71687012 104.15941895 40.13647461 105.33422852 C41 108 41 108 41 110 C33.08 110 25.16 110 17 110 C16.175 107.421875 15.35 104.84375 14.5 102.1875 C14.23896484 101.37949951 13.97792969 100.57149902 13.70898438 99.73901367 C12.75555883 96.72323788 12 94.18094183 12 91 C0.12 91.33 -11.76 91.66 -24 92 C-25.98 97.94 -27.96 103.88 -30 110 C-37.92 110 -45.84 110 -54 110 C-45.66210023 84.55253711 -36.8909935 59.27348168 -27.86869812 34.06057739 C-26.32017737 29.73022488 -24.78618113 25.39654995 -23.29980469 21.04443359 C-22.90267776 19.89028206 -22.90267776 19.89028206 -22.49752808 18.71281433 C-22.01607205 17.30983034 -21.54000335 15.90497783 -21.07107544 14.49775696 C-19.11972364 8.83289621 -17.1052412 3.40349414 -12 0 C-7.77248056 -1.29174205 -4.26330354 -1.1419563 0 0 Z M-7 33 C-8.57391809 37.90898051 -10.14027723 42.82028448 -11.69970703 47.73388672 C-12.23116753 49.40479333 -12.76468085 51.07504847 -13.30029297 52.74462891 C-14.07020157 55.14577244 -14.83267613 57.54916877 -15.59375 59.953125 C-15.95466736 61.0705307 -15.95466736 61.0705307 -16.32287598 62.21051025 C-17.41110097 65.67155143 -18 68.33418565 -18 72 C-10.08 72 -2.16 72 6 72 C2.86302893 58.8247215 -0.96941347 45.92778345 -5 33 C-5.66 33 -6.32 33 -7 33 Z " fill="#FCFCFC" transform="translate(504,45)"/>
</svg>
